<svg width="40" height="40" viewBox="0 0 40 40" fill="none" xmlns="http://www.w3.org/2000/svg">
<path d="M19.9997 3.33325C17.811 3.33325 15.6437 3.76435 13.6216 4.60193C11.5995 5.4395 9.7622 6.66716 8.21456 8.21481C5.08896 11.3404 3.33301 15.5796 3.33301 19.9999C3.33301 27.3666 8.11634 33.6166 14.733 35.8333C15.5663 35.9666 15.833 35.4499 15.833 34.9999V32.1833C11.2163 33.1833 10.233 29.9499 10.233 29.9499C9.46634 28.0166 8.38301 27.4999 8.38301 27.4999C6.86634 26.4666 8.49967 26.4999 8.49967 26.4999C10.1663 26.6166 11.0497 28.2166 11.0497 28.2166C12.4997 30.7499 14.9497 29.9999 15.8997 29.5999C16.0497 28.5166 16.483 27.7833 16.9497 27.3666C13.2497 26.9499 9.36634 25.5166 9.36634 19.1666C9.36634 17.3166 9.99967 15.8333 11.083 14.6499C10.9163 14.2333 10.333 12.4999 11.2497 10.2499C11.2497 10.2499 12.6497 9.79992 15.833 11.9499C17.1497 11.5833 18.583 11.3999 19.9997 11.3999C21.4163 11.3999 22.8497 11.5833 24.1663 11.9499C27.3497 9.79992 28.7497 10.2499 28.7497 10.2499C29.6663 12.4999 29.083 14.2333 28.9163 14.6499C29.9997 15.8333 30.633 17.3166 30.633 19.1666C30.633 25.5333 26.733 26.9333 23.0163 27.3499C23.6163 27.8666 24.1663 28.8833 24.1663 30.4333V34.9999C24.1663 35.4499 24.433 35.9832 25.283 35.8333C31.8997 33.5999 36.6663 27.3666 36.6663 19.9999C36.6663 17.8112 36.2352 15.644 35.3977 13.6219C34.5601 11.5998 33.3324 9.76245 31.7848 8.21481C30.2371 6.66716 28.3998 5.4395 26.3777 4.60193C24.3556 3.76435 22.1884 3.33325 19.9997 3.33325Z" fill="black"/>
</svg>
