<?xml version="1.0" standalone="no"?>
<!DOCTYPE svg PUBLIC "-//W3C//DTD SVG 20010904//EN"
 "http://www.w3.org/TR/2001/REC-SVG-20010904/DTD/svg10.dtd">
<svg version="1.0" xmlns="http://www.w3.org/2000/svg"
 width="2000.000000pt" height="2000.000000pt" viewBox="0 0 2000.000000 2000.000000"
 preserveAspectRatio="xMidYMid meet">

<g transform="translate(0.000000,2000.000000) scale(0.100000,-0.100000)"
fill="#000000" stroke="none">
<path d="M0 13076 l0 -6924 25 -6 c32 -8 32 -23 0 -38 l-25 -11 0 -3049 0
-3048 10000 0 10000 0 0 10000 0 10000 -10000 0 -10000 0 0 -6924z m245 -648
c-3 -13 -10 -36 -15 -53 l-8 -30 -1 37 c-1 42 7 68 21 68 6 0 7 -9 3 -22z m10
-513 c17 -65 26 -125 29 -215 2 -69 9 -145 15 -170 6 -25 22 -99 36 -165 36
-166 71 -281 106 -342 32 -59 36 -78 14 -69 -9 3 -15 0 -15 -9 0 -24 -27 -17
-49 11 -72 91 -121 307 -146 639 -4 44 -13 145 -20 225 -15 160 -21 311 -16
410 3 49 6 30 13 -80 6 -100 16 -173 33 -235z m3051 -3291 c-3 -9 -6 -20 -6
-25 0 -4 -7 -6 -15 -3 -18 7 -20 30 -2 37 23 10 29 7 23 -9z m224 -249 c0 -7
-76 -44 -122 -61 -30 -10 -39 -11 -36 -1 3 6 38 24 79 39 87 32 79 29 79 23z
m-215 -75 c-3 -5 -11 -10 -16 -10 -6 0 -7 5 -4 10 3 6 11 10 16 10 6 0 7 -4 4
-10z m-225 -74 c0 -2 -38 -30 -85 -61 -47 -32 -85 -62 -85 -67 0 -4 -5 -8 -10
-8 -27 0 16 43 80 81 39 23 73 45 76 50 5 9 24 13 24 5z m378 -46 c17 -11 32
-26 32 -33 0 -35 89 -75 176 -78 38 -1 88 -8 112 -15 23 -7 46 -14 50 -15 4 0
6 -5 5 -10 -2 -4 5 -5 14 -2 11 4 14 3 9 -5 -5 -9 -1 -9 18 -3 18 8 26 6 30
-5 3 -8 14 -14 25 -14 12 0 28 -11 37 -25 14 -21 19 -23 32 -13 12 10 14 10 9
1 -5 -8 5 -18 29 -28 20 -8 39 -13 42 -11 2 3 13 -5 24 -17 11 -12 16 -15 12
-7 -5 11 -4 12 4 5 7 -6 14 -25 18 -42 5 -26 2 -36 -20 -56 -14 -13 -26 -29
-26 -35 0 -6 -15 -21 -32 -34 -18 -12 -40 -28 -48 -35 -8 -6 -45 -36 -81 -65
-37 -29 -104 -82 -149 -117 -45 -36 -88 -71 -95 -78 -8 -7 -18 -13 -23 -13
-13 0 -55 -86 -49 -97 3 -5 2 -27 -2 -50 -5 -23 -5 -42 -2 -41 18 2 21 -4 10
-24 -6 -13 -8 -20 -4 -16 10 9 35 -16 35 -35 0 -8 9 -22 20 -32 16 -14 29 -16
77 -10 62 7 238 73 367 137 43 21 81 37 83 34 8 -7 -319 -166 -442 -215 -60
-24 -128 -52 -150 -61 -86 -38 -257 -56 -302 -31 -28 14 -37 48 -24 83 8 22 2
51 -30 155 -35 112 -40 137 -37 203 4 71 10 90 116 325 75 168 112 263 112
286 0 20 -9 61 -19 92 -25 72 -19 81 37 47z m-328 -64 c0 -7 -145 -96 -155
-96 -7 0 143 98 153 100 1 0 2 -2 2 -4z m-320 -87 c-24 -22 -52 -45 -62 -50
-15 -8 -16 -6 -10 11 7 18 95 80 112 79 3 0 -15 -18 -40 -40z m140 -13 c0 -2
-91 -67 -202 -144 -352 -241 -548 -374 -548 -369 0 5 210 153 440 309 85 58
189 129 230 157 77 52 80 54 80 47z m-280 -76 c20 0 -8 -26 -90 -82 -103 -71
-359 -247 -430 -297 -246 -171 -496 -343 -648 -446 -91 -62 -118 -76 -138 -71
-14 4 -24 12 -21 19 2 7 127 97 278 201 955 658 994 685 1014 681 11 -3 27 -5
35 -5z m-480 -445 c0 -4 -98 -72 -130 -90 -30 -17 1 9 62 51 68 46 68 46 68
39z m-190 -130 c0 -2 -10 -9 -22 -15 -22 -11 -22 -10 -4 4 21 17 26 19 26 11z
m3310 -187 c0 -16 -3 -19 -11 -11 -6 6 -8 16 -5 22 11 17 16 13 16 -11z m-190
-43 c0 -3 -12 -23 -26 -45 -14 -21 -23 -44 -19 -50 4 -7 -6 -25 -21 -42 l-29
-30 25 7 25 8 -27 -26 c-16 -14 -28 -29 -28 -33 0 -4 -7 -16 -17 -26 -13 -14
-13 -18 -2 -18 9 -1 8 -4 -5 -11 -10 -7 -21 -8 -25 -2 -7 10 -48 9 -58 -1 -3
-3 5 -6 18 -7 13 0 18 -3 12 -6 -7 -2 -13 -11 -13 -19 0 -11 4 -12 19 -5 16 9
18 7 17 -19 0 -19 -6 -30 -16 -31 -11 0 -11 -2 -2 -6 7 -3 28 7 47 21 18 14
35 26 38 26 2 0 2 -13 -1 -30 -4 -26 -1 -30 19 -30 29 0 56 -47 38 -64 -7 -8
-10 -7 -7 4 5 25 -16 24 -29 -1 l-13 -24 -1 25 c-1 14 -2 31 -2 37 1 7 -3 10
-8 7 -5 -3 -9 -11 -9 -18 0 -6 -23 -20 -51 -30 l-51 -19 7 -46 c4 -25 15 -72
26 -103 10 -32 19 -64 19 -72 0 -8 8 -19 17 -25 10 -5 15 -13 11 -17 -13 -12
64 -62 107 -69 49 -9 75 -22 75 -38 0 -15 91 -107 106 -107 6 0 17 -6 23 -14
7 -8 21 -12 32 -9 13 4 27 -2 40 -16 11 -11 26 -21 33 -21 7 0 23 -33 36 -77
l24 -77 10 35 c17 52 32 73 49 66 13 -5 15 -27 13 -136 -2 -128 -2 -130 21
-136 12 -3 39 1 59 10 75 31 90 22 149 -90 l36 -70 -5 59 c-6 73 6 91 46 68
31 -18 36 -28 48 -92 l8 -45 -21 26 c-12 15 -31 42 -41 60 -19 32 -20 32 -24
11 -2 -13 5 -32 17 -45 51 -56 89 -108 100 -138 7 -19 21 -52 32 -75 10 -23
19 -51 19 -63 0 -11 5 -21 10 -21 6 0 8 10 4 24 -6 27 11 44 20 19 4 -9 9 -50
12 -92 2 -42 7 -98 9 -126 4 -47 3 -49 -10 -25 -8 14 -14 36 -15 49 0 18 -4
22 -17 16 -16 -7 -32 -10 -84 -14 -39 -3 -33 -66 7 -82 16 -6 23 -13 18 -21
-6 -10 -4 -10 8 0 11 9 22 9 39 3 13 -5 18 -10 12 -10 -26 -2 -13 -31 13 -31
14 0 23 -4 20 -9 -3 -4 -17 -6 -31 -3 -15 2 -25 0 -25 -7 0 -6 6 -11 13 -11 6
0 4 -5 -6 -11 -10 -6 -21 -8 -24 -5 -4 3 0 6 8 6 8 0 1 7 -15 15 -37 19 -39
19 -26 -4 13 -25 13 -71 0 -71 -5 0 -10 6 -10 13 0 12 -94 60 -117 60 -4 0
-12 6 -18 13 -16 20 -75 23 -75 3 0 -6 6 -9 13 -6 9 3 20 -9 31 -34 14 -31 34
-48 109 -93 51 -30 106 -69 123 -86 l31 -30 27 39 c27 38 66 79 66 69 0 -3
-14 -23 -31 -44 -55 -69 -91 -166 -73 -196 4 -6 6 -39 5 -74 -3 -71 8 -139 19
-127 5 4 11 40 13 78 3 39 6 72 7 75 1 3 1 17 0 33 -1 15 3 27 7 27 5 0 20
-12 33 -27 21 -24 25 -25 28 -10 2 9 7 17 11 17 10 0 37 -31 44 -50 4 -10 6
-7 6 8 1 12 5 22 10 22 14 0 21 -39 21 -117 l0 -72 -27 5 c-72 14 -70 16 -60
-53 5 -30 26 -53 48 -53 12 0 19 -7 19 -17 -1 -25 -65 -135 -74 -126 -4 4 -4
0 -1 -8 9 -24 51 -43 91 -42 50 1 43 -21 -16 -51 -28 -14 -48 -21 -44 -15 4 7
-9 9 -40 6 -26 -2 -49 0 -52 5 -8 13 -24 9 -24 -6 0 -8 -7 -16 -15 -20 -8 -3
-15 -10 -15 -15 0 -17 -144 -151 -169 -158 -23 -6 -23 -7 -6 -19 11 -8 27 -14
38 -14 15 0 18 5 14 26 -4 24 1 29 67 59 58 27 88 34 161 39 l90 6 -35 -19
c-19 -10 -50 -22 -68 -26 -40 -8 -53 -31 -45 -79 l6 -36 -44 0 c-31 0 -40 -3
-32 -11 6 -6 47 -11 93 -11 76 0 82 -2 92 -24 13 -27 21 -28 101 -13 l58 10
81 -75 82 -74 18 29 c11 18 26 29 40 29 19 0 13 9 -37 54 -33 30 -58 56 -55
59 6 5 166 43 240 56 128 23 460 45 442 30 -8 -7 -124 -33 -327 -75 -138 -28
-182 -43 -130 -44 17 0 53 -7 80 -16 182 -56 498 -147 820 -234 141 -39 196
-58 215 -76 25 -24 25 -24 2 -24 -26 0 -352 89 -472 129 -47 16 -119 37 -160
46 -41 10 -180 47 -309 81 -129 35 -237 62 -240 59 -15 -15 42 -38 213 -86
187 -52 188 -52 165 -70 -13 -10 -21 -20 -19 -23 3 -2 58 -19 124 -36 107 -29
124 -31 177 -21 56 9 67 7 306 -60 136 -38 262 -69 280 -69 17 0 161 29 320
64 376 84 567 124 623 131 25 3 56 7 70 9 88 16 102 17 96 8 -4 -6 3 -8 16 -4
14 3 19 2 14 -6 -4 -7 -16 -12 -26 -12 -10 0 -22 -5 -26 -11 -4 -8 3 -9 22 -5
16 3 47 8 69 12 22 4 44 9 50 12 23 14 71 12 82 -4 9 -12 21 -15 47 -10 44 8
47 26 5 26 -17 0 -28 4 -24 10 10 16 76 12 89 -5 8 -11 20 -14 44 -9 41 8 42
24 1 24 -17 0 -28 4 -24 10 3 6 24 10 46 10 21 0 39 -4 39 -10 0 -5 14 -10 30
-10 19 0 30 -5 30 -14 0 -8 9 -18 20 -21 11 -3 20 -11 20 -17 0 -6 11 -8 25
-6 15 3 29 0 33 -7 4 -7 17 -15 29 -17 16 -2 20 -7 14 -16 -6 -10 -17 -10 -54
3 -45 15 -97 12 -97 -6 0 -5 9 -9 21 -9 12 0 19 -5 16 -12 -4 -14 -46 -12 -61
3 -13 12 -67 11 -86 -1 -12 -8 -11 -10 8 -10 13 0 22 -6 22 -16 0 -12 -6 -15
-22 -9 -46 14 -115 17 -122 6 -4 -6 -1 -11 8 -11 9 0 16 -4 16 -9 0 -20 -21
-22 -55 -6 -26 13 -41 15 -62 7 -25 -9 -26 -11 -6 -11 21 -1 22 -2 7 -19 -16
-19 -64 -19 -64 -1 0 12 -41 11 -60 -1 -9 -6 -11 -10 -3 -10 7 0 10 -7 7 -15
-4 -11 -21 -15 -58 -15 -47 0 -76 -12 -76 -31 0 -4 18 -10 40 -14 45 -8 54
-17 45 -44 -3 -12 -15 -18 -31 -18 -33 -1 -38 -7 -29 -40 6 -26 7 -27 20 -9
10 12 22 17 39 14 14 -3 27 0 30 6 2 6 5 2 5 -9 1 -11 -6 -31 -15 -43 -9 -13
-14 -26 -11 -29 3 -3 41 -10 84 -15 86 -11 108 -8 378 52 77 17 154 33 170 35
17 3 42 7 58 11 35 7 36 -13 1 -26 -18 -7 -24 -16 -22 -32 3 -24 9 -26 143
-56 332 -75 375 -86 365 -96 -7 -7 -37 -5 -92 6 -46 9 -84 15 -86 13 -2 -2 23
-10 55 -19 32 -9 67 -20 78 -25 19 -8 19 -8 -2 -19 -17 -9 -40 -8 -105 4 -97
18 -236 25 -244 12 -3 -5 -15 -6 -25 -3 -11 4 -25 2 -32 -3 -7 -5 -33 -15 -59
-23 -30 -8 -43 -16 -35 -21 8 -5 4 -8 -10 -8 -13 0 -23 -3 -23 -6 0 -14 22
-44 33 -44 7 0 6 4 -3 10 -17 11 -10 13 13 4 9 -3 13 -13 9 -26 -4 -16 -2 -19
8 -13 8 5 11 3 8 -6 -3 -8 -19 -18 -36 -23 -18 -5 -32 -13 -32 -17 0 -5 -13
-15 -28 -23 -39 -20 -114 -21 -3151 -21 l-2604 0 -48 155 -49 155 0 298 c0
324 -2 336 -57 372 -17 12 -53 20 -99 23 l-71 4 -48 154 c-27 85 -45 157 -42
160 4 4 45 -12 92 -34 l85 -41 -6 -43 c-7 -51 3 -63 83 -96 70 -30 101 -29
109 3 3 14 10 25 14 25 7 0 46 -17 173 -72 55 -25 80 -15 50 20 -10 11 -137
82 -283 157 -258 132 -308 161 -299 169 2 2 146 0 319 -3 l315 -8 60 -28 c81
-39 409 -164 414 -159 9 8 -36 59 -55 62 -10 2 -41 9 -69 17 -27 7 -79 21
-115 30 -125 33 -216 81 -242 128 -17 32 -20 81 -7 114 6 15 12 45 15 67 4 43
34 99 94 175 77 97 177 139 253 107 20 -8 37 -21 37 -29 0 -8 9 -17 20 -20 11
-3 20 -10 20 -17 0 -6 -5 -8 -12 -3 -7 4 -2 -7 12 -24 14 -18 29 -32 34 -32 5
-1 17 -7 25 -15 9 -8 45 -24 81 -35 150 -49 209 -73 215 -89 9 -23 26 -120 27
-154 1 -15 8 -30 17 -33 35 -14 181 -119 178 -128 -5 -17 -24 -19 -38 -4 -13
13 -65 10 -111 -8 -21 -8 -12 -35 12 -35 16 0 36 -27 27 -36 -2 -2 -30 7 -62
21 -89 35 -111 39 -118 21 -4 -9 -2 -16 3 -16 10 0 55 -90 52 -102 -1 -5 3 -8
9 -8 6 0 18 -9 27 -19 21 -24 83 -31 106 -12 24 20 48 -4 39 -38 -6 -23 -8
-23 -80 -18 -42 3 -71 2 -68 -4 3 -5 1 -18 -5 -30 -10 -18 -17 -20 -43 -14
-42 10 -157 12 -157 3 0 -8 65 -28 90 -28 9 0 40 -7 70 -15 88 -24 147 -33
280 -40 69 -4 131 -12 138 -17 9 -8 12 -5 12 8 0 14 20 28 70 51 51 23 70 37
70 50 0 24 -45 66 -90 83 -19 8 -41 22 -48 32 -8 10 -30 26 -50 36 -35 16 -62
62 -29 49 26 -10 46 16 78 103 39 108 41 110 87 99 37 -9 202 -10 202 -2 0 20
-38 61 -70 77 -55 27 -99 69 -85 82 20 19 107 25 156 10 33 -10 50 -11 57 -4
8 8 9 4 5 -12 -4 -17 -2 -21 8 -18 8 3 13 11 11 17 -1 8 2 9 10 5 14 -9 38
-14 38 -9 0 18 -15 33 -28 28 -14 -5 -15 -3 -5 7 10 10 1 19 -40 42 -132 72
-312 148 -352 148 -27 0 -70 36 -55 45 4 3 10 -1 13 -7 2 -7 8 -10 13 -5 4 4
-14 29 -40 56 -41 42 -45 49 -28 53 22 6 91 3 142 -6 19 -3 52 -8 73 -10 37
-3 37 -3 20 17 -18 20 -147 107 -161 107 -13 1 -48 34 -55 53 -6 15 -4 16 13
7 16 -9 18 -8 13 6 -5 14 -1 16 23 13 21 -3 36 3 53 20 13 14 17 21 8 18 -9
-3 -18 1 -21 9 -3 9 -10 13 -15 10 -5 -4 -16 0 -24 8 -8 8 -17 12 -20 9 -4 -3
-14 -2 -24 1 -10 4 -20 7 -22 6 -2 -1 -7 4 -11 10 -9 14 -60 23 -60 11 0 -5
-11 -6 -25 -3 -14 2 -25 8 -25 13 0 5 -6 9 -14 9 -8 0 -31 9 -50 21 -30 17
-37 29 -46 75 -6 29 -9 58 -5 64 3 5 -10 60 -29 121 -28 86 -76 294 -76 325 0
2 -6 4 -12 4 -7 0 -76 25 -153 56 -77 31 -161 62 -188 69 -26 7 -73 28 -105
45 l-57 32 25 -27 c32 -35 154 -117 200 -135 19 -7 45 -22 57 -33 12 -11 39
-21 60 -22 67 -5 135 -22 144 -36 14 -23 10 -118 -6 -149 -14 -27 -26 -35 -47
-31 -5 0 -8 -5 -8 -12 0 -28 -37 -53 -104 -70 -76 -20 -114 -41 -97 -52 6 -3
39 -8 73 -10 65 -4 88 -20 60 -41 -11 -8 -19 -9 -23 -3 -3 6 -14 -2 -23 -16
-16 -25 -19 -25 -30 -9 -20 27 -31 -2 -12 -31 22 -34 21 -65 -3 -65 -19 0 -36
36 -20 42 4 2 1 17 -7 33 -18 35 -131 129 -131 109 0 -7 6 -15 13 -18 7 -3 31
-28 54 -57 31 -39 38 -55 30 -65 -7 -7 -17 -11 -24 -8 -6 2 -23 -7 -35 -20
-22 -24 -23 -26 -6 -32 10 -4 27 -16 37 -26 10 -10 25 -18 33 -18 8 0 15 -9
15 -19 0 -25 -16 -36 -24 -16 -3 8 -12 12 -19 9 -8 -3 -48 15 -89 40 -42 25
-83 46 -93 46 -31 0 0 -24 84 -66 68 -33 79 -42 74 -59 -3 -11 -6 -21 -7 -22
-6 -7 -130 30 -162 47 -51 29 -64 12 -25 -33 24 -26 57 -45 137 -76 58 -23
114 -41 125 -41 10 0 19 -5 19 -11 0 -6 7 -8 15 -5 13 5 12 1 -2 -18 -13 -17
-22 -21 -35 -15 -10 5 -26 13 -36 18 -20 9 -78 23 -88 21 -4 -1 -10 2 -13 7
-3 4 -21 13 -39 20 -26 9 -40 9 -64 -1 l-30 -13 48 -12 c64 -16 212 -86 242
-114 35 -33 61 -80 76 -137 l13 -52 -36 34 c-20 19 -62 52 -94 73 -54 36 -72
59 -29 36 24 -13 82 -15 82 -3 0 22 -105 46 -184 43 -41 -2 -76 -19 -159 -79
-73 -53 -149 -171 -202 -315 l-17 -49 -29 34 c-15 18 -28 30 -29 26 0 -4 15
-24 33 -44 l32 -37 -27 6 c-64 16 -80 26 -73 47 3 10 -1 32 -9 47 -8 15 -15
24 -16 20 0 -5 5 -17 10 -28 7 -13 7 -19 0 -19 -5 0 -10 7 -10 15 0 9 -7 18
-15 21 -8 4 -15 14 -15 24 0 10 -6 25 -13 32 -15 15 -21 45 -20 113 0 38 10
71 41 135 56 116 44 123 -33 18 -23 -32 -45 -56 -48 -51 -7 12 3 30 61 120 42
64 59 82 83 87 16 3 29 10 29 15 0 13 -107 -13 -128 -31 -57 -49 -55 -25 3 40
40 45 50 50 100 57 30 3 57 10 60 15 6 9 -48 30 -80 30 -38 0 -83 21 -88 41
-3 11 5 33 19 51 51 70 62 90 57 109 -12 46 8 92 71 158 66 69 73 86 102 241
3 19 19 60 34 90 15 31 31 71 34 90 20 95 60 204 106 283 46 81 50 92 50 155
1 42 12 108 31 177 16 61 39 144 50 185 45 166 125 262 292 352 56 31 129 64
162 73 33 10 103 30 155 46 157 47 200 57 200 44z m179 -13 c5 -10 6 -24 2
-31 -7 -10 -12 -10 -29 0 l-22 14 23 13 c12 7 14 11 5 8 -10 -3 -20 -1 -23 4
-4 6 3 10 14 10 11 0 25 -8 30 -18z m-9 -72 c0 -5 -8 -7 -17 -4 -13 4 -15 3
-5 -4 16 -11 44 -62 34 -62 -22 1 -46 34 -47 64 0 30 2 33 17 25 10 -5 18 -14
18 -19z m3780 -4 c0 -2 -11 -28 -24 -57 -15 -32 -43 -147 -70 -284 -195 -996
-268 -1367 -356 -1825 -56 -289 -121 -622 -145 -740 -24 -118 -47 -239 -51
-268 -7 -55 -24 -55 -24 0 0 39 68 396 80 416 6 9 51 231 100 492 123 644 164
859 281 1460 151 783 146 759 176 792 14 16 33 24 33 14z m-3792 -62 c23 -16
31 -40 10 -29 -7 4 -2 -2 11 -13 l24 -20 -23 -12 c-18 -10 -24 -9 -31 1 -4 7
-5 17 -2 21 2 5 -2 20 -11 33 -26 39 -17 47 22 19z m-4058 -58 c0 -29 -12 -39
-34 -30 -19 7 -21 25 -4 42 20 20 38 14 38 -12z m-160 -81 c0 -20 -11 -30 -62
-56 -91 -46 -168 -100 -293 -204 -131 -109 -285 -225 -301 -225 -6 0 -17 7
-24 16 -11 12 -11 18 2 30 20 21 661 463 671 464 4 0 7 -11 7 -25z m4078 -12
c2 -33 -9 -83 -18 -83 -13 0 -17 51 -6 78 11 26 22 29 24 5z m107 -43 c-3 -5
-11 -10 -16 -10 -6 0 -7 5 -4 10 3 6 11 10 16 10 6 0 7 -4 4 -10z m-275 -126
c0 -8 -4 -12 -10 -9 -5 3 -10 10 -10 16 0 5 5 9 10 9 6 0 10 -7 10 -16z
m-3860 -193 c13 -25 -19 -67 -44 -58 -25 10 -30 36 -11 57 23 25 41 25 55 1z
m84 -527 c60 -23 -45 -83 -112 -65 -26 8 -27 8 -4 15 12 4 22 11 22 16 0 10
49 39 67 40 6 0 18 -3 27 -6z m-563 -104 c10 -6 19 -18 19 -26 0 -17 -258
-287 -394 -412 -88 -82 -120 -90 -144 -39 -7 15 -19 27 -27 27 -8 0 -19 9 -25
20 -8 16 -6 26 10 48 12 15 22 41 24 58 1 16 7 28 12 28 82 -13 113 -14 119
-5 3 6 -2 11 -13 11 -10 0 -22 3 -26 7 -3 4 -16 8 -27 10 -26 4 -59 21 -59 32
0 19 49 51 83 53 20 2 37 6 37 9 0 3 6 6 13 6 6 0 26 3 43 7 24 5 33 3 37 -8
10 -25 25 -18 32 14 4 17 15 36 26 43 24 15 24 27 0 27 -11 0 -22 4 -25 9 -3
4 23 11 57 15 45 4 73 14 102 35 55 39 92 48 126 31z m624 -110 c3 -5 13 -6
22 -3 11 4 14 3 9 -5 -4 -7 -1 -12 6 -12 16 0 49 -36 45 -49 -1 -5 8 -18 21
-29 13 -11 23 -24 22 -29 0 -4 6 -24 15 -43 15 -32 82 -90 105 -90 6 0 10 -4
10 -10 0 -5 8 -10 19 -10 10 0 35 -7 55 -15 20 -8 36 -12 36 -9 0 4 6 2 13 -4
6 -6 17 -11 22 -12 66 -8 249 -90 273 -122 7 -10 18 -18 23 -18 5 0 23 -14 39
-30 17 -17 35 -28 40 -25 6 3 10 1 10 -4 0 -6 7 -11 16 -11 8 0 13 -4 10 -9
-4 -5 2 -7 13 -4 11 3 21 -2 24 -11 4 -9 1 -16 -6 -17 -7 0 -2 -4 10 -9 28
-11 56 -53 56 -85 0 -13 2 -24 6 -23 17 3 61 -16 58 -25 -6 -18 16 -34 37 -29
15 4 18 1 13 -11 -3 -9 1 -21 11 -29 13 -11 14 -11 7 1 -5 9 -4 12 3 8 5 -4 8
-16 5 -27 -5 -18 3 -24 27 -22 3 0 5 -13 5 -29 0 -22 -5 -29 -20 -30 -11 0
-14 -3 -7 -6 14 -5 17 -24 3 -20 -5 1 -23 -13 -40 -30 -17 -18 -36 -33 -42
-33 -5 0 -8 -4 -5 -8 2 -4 -6 -17 -20 -27 -13 -11 -34 -29 -47 -40 -13 -11
-35 -27 -47 -35 -13 -8 -33 -24 -44 -35 -12 -11 -24 -19 -28 -18 -5 2 -8 -2
-8 -7 0 -6 -8 -10 -17 -10 -15 0 -16 -2 -3 -10 13 -8 13 -10 -1 -10 -27 0 -73
-28 -118 -70 -23 -22 -46 -40 -52 -40 -6 0 -7 -4 -4 -10 3 -5 -3 -10 -14 -10
-12 0 -26 -9 -33 -19 -6 -10 -18 -17 -25 -14 -8 3 -13 0 -11 -8 2 -7 -7 -18
-19 -24 -13 -5 -23 -15 -23 -21 0 -6 -11 -17 -25 -24 -13 -7 -22 -17 -19 -21
2 -4 -6 -15 -20 -24 -16 -11 -23 -22 -19 -32 5 -11 3 -14 -6 -9 -9 6 -12 2
-10 -10 1 -11 -1 -26 -4 -34 -12 -33 -14 -46 -7 -71 7 -24 5 -26 -14 -22 -17
4 -18 3 -6 -6 8 -6 11 -11 6 -11 -6 0 -1 -7 10 -15 10 -8 15 -15 9 -14 -23 3
-36 -2 -30 -11 3 -5 13 -6 23 -3 14 5 14 3 -2 -9 -16 -13 -17 -16 -4 -28 8 -8
12 -24 10 -37 -2 -13 1 -30 8 -38 9 -10 9 -15 1 -15 -6 0 -11 -4 -11 -10 0 -5
8 -7 18 -3 9 3 14 3 11 -1 -4 -4 6 -20 22 -35 30 -31 66 -50 52 -28 -4 6 6 4
21 -7 16 -10 26 -14 23 -10 -3 5 31 10 75 10 44 1 98 5 120 8 33 5 39 4 36
-11 -11 -61 -563 -231 -888 -273 -47 -6 -96 -13 -110 -15 -70 -13 -285 -16
-370 -6 -124 14 -162 26 -194 57 -31 32 -33 66 -7 115 11 20 23 64 26 98 6 58
5 61 -19 73 -30 13 -32 29 -10 89 12 35 14 67 8 159 -9 163 -6 204 23 293 27
80 106 213 214 358 31 41 66 90 79 109 13 19 90 123 170 230 80 107 155 218
167 246 20 46 28 120 21 192 -3 28 -6 28 -32 -2 -28 -32 -76 -61 -76 -47 0 6
4 11 10 11 11 0 100 87 94 93 -2 2 3 27 11 55 10 33 22 53 35 57 11 4 20 11
20 16 0 12 97 12 105 -1z m4986 -637 c-5 -10 -26 -34 -47 -53 -36 -33 -35 -33
7 17 47 56 56 64 40 36z m-4046 -13 c3 -5 1 -10 -4 -10 -6 0 -11 5 -11 10 0 6
2 10 4 10 3 0 8 -4 11 -10z m4137 -377 c14 -16 47 -47 74 -70 27 -23 58 -59
69 -80 10 -21 27 -46 37 -56 23 -23 15 -37 -21 -37 -33 0 -50 17 -53 53 -2 17
-8 25 -19 24 -17 -1 -15 -27 2 -27 14 0 11 -20 -5 -36 -16 -15 -57 -11 -114
13 -40 17 -33 33 14 31 19 -1 39 3 43 8 10 11 25 74 17 74 -2 0 -19 -13 -37
-29 -17 -16 -38 -27 -45 -24 -8 3 -14 -1 -15 -8 -1 -8 -7 6 -15 30 -13 41 -12
44 8 61 13 10 29 15 37 12 9 -3 12 -1 7 6 -4 7 -2 12 6 12 9 1 8 4 -3 13 -9 7
-14 18 -12 25 3 6 0 12 -6 12 -6 0 -11 5 -11 10 0 17 16 11 42 -17z m-1351
-183 l12 -40 60 0 c71 0 107 -22 138 -83 21 -41 21 -41 2 -57 -27 -21 -46 -58
-39 -76 3 -8 -3 -20 -14 -26 -14 -9 -16 -14 -6 -22 8 -7 11 -29 8 -63 -4 -52
-4 -52 -30 -41 -45 19 -54 34 -58 95 -10 148 -19 175 -53 166 -26 -7 -85 99
-76 136 7 29 23 51 36 51 4 0 14 -18 20 -40z m5764 -11 c63 -16 80 -39 79
-108 0 -42 -8 -71 -31 -116 -42 -83 -53 -114 -57 -161 -1 -22 -5 -45 -8 -50
-3 -5 -4 -26 -3 -47 2 -23 0 -35 -7 -31 -6 4 -5 -3 2 -16 6 -12 8 -29 5 -38
-4 -9 -6 -48 -5 -86 1 -51 -2 -66 -11 -60 -8 5 -10 3 -3 -7 4 -8 9 -33 10 -56
1 -33 -1 -39 -11 -30 -6 6 -10 19 -8 28 3 10 0 26 -7 36 -9 15 -11 13 -7 -14
2 -23 -1 -33 -10 -33 -7 0 -13 -5 -13 -11 0 -5 4 -8 8 -5 4 2 14 1 22 -5 10
-5 11 -9 3 -9 -7 0 -10 -7 -7 -15 4 -8 2 -15 -3 -15 -6 0 -10 -13 -9 -30 1
-16 4 -30 9 -30 7 0 11 23 8 47 -3 21 17 23 22 3 3 -11 2 -20 -2 -20 -4 0 -7
-12 -7 -27 1 -15 -5 -28 -14 -30 -12 -4 -12 -3 -2 5 11 7 9 11 -8 15 -17 4
-21 11 -17 26 4 16 0 19 -19 17 -13 -2 -27 -6 -31 -9 -14 -15 -31 -6 -26 13 3
11 10 20 15 20 5 0 7 -3 5 -7 -3 -5 6 -8 19 -8 27 0 40 21 18 29 -9 3 -12 1
-9 -4 9 -14 -1 -12 -36 6 -17 8 -28 18 -25 21 3 3 11 1 19 -5 10 -8 12 -5 11
16 -1 15 -3 38 -3 51 -1 24 -1 24 -15 5 -14 -18 -15 -18 -14 6 1 14 5 30 8 35
4 6 6 19 3 30 -4 22 -9 94 -17 250 -3 55 -10 123 -16 150 -32 149 -33 169 -17
207 29 70 106 94 212 67z m-6845 -190 c0 -14 -17 -10 -23 5 -4 10 -1 13 9 9 7
-3 14 -9 14 -14z m33 -35 c-4 -11 -9 -12 -19 -3 -17 14 -9 30 11 23 7 -3 11
-12 8 -20z m1028 -224 l24 -21 -32 16 c-32 15 -42 25 -24 25 5 0 19 -9 32 -20z
m82 -11 c7 -1 22 0 34 0 28 3 36 -11 19 -34 -12 -16 -17 -17 -57 -4 -35 11
-43 18 -41 34 5 25 26 39 30 20 2 -8 9 -15 15 -16z m-2697 -174 c12 -29 -12
-42 -66 -35 -27 3 -52 9 -55 12 -7 7 71 36 98 37 10 1 20 -6 23 -14z m7401
-91 c-3 -3 -12 -4 -19 -1 -8 3 -5 6 6 6 11 1 17 -2 13 -5z m83 -14 c0 -5 14
-10 30 -10 17 0 30 -5 30 -10 0 -15 -70 -1 -88 17 -11 11 -10 13 7 13 12 0 21
-4 21 -10z m153 3 c-7 -2 -19 -2 -25 0 -7 3 -2 5 12 5 14 0 19 -2 13 -5z m110
0 c-7 -2 -19 -2 -25 0 -7 3 -2 5 12 5 14 0 19 -2 13 -5z m47 -13 c0 -5 17 -10
37 -10 22 0 33 -4 28 -9 -15 -13 -85 -1 -85 15 0 8 5 14 10 14 6 0 10 -4 10
-10z m240 0 c12 -8 11 -10 -7 -10 -13 0 -23 5 -23 10 0 13 11 13 30 0z m-660
-15 c7 -8 23 -15 35 -15 13 0 25 -7 29 -15 3 -8 12 -15 21 -15 8 0 15 -4 15
-10 0 -5 14 -10 30 -10 17 0 30 -4 30 -9 0 -14 -18 -23 -24 -12 -3 5 -19 8
-36 7 -19 -1 -30 3 -30 11 0 8 -12 13 -30 13 -32 0 -41 16 -12 23 12 3 10 5
-8 7 -14 1 -28 2 -32 1 -5 0 -8 4 -8 9 0 6 -10 15 -22 20 -22 9 -22 9 3 9 15
1 32 -6 39 -14z m-230 -5 c10 -7 -1 -8 -35 -4 -27 4 -52 8 -54 10 -10 9 75 3
89 -6z m513 3 c-7 -2 -21 -2 -30 0 -10 3 -4 5 12 5 17 0 24 -2 18 -5z m-395
-23 c2 -5 17 -10 33 -10 19 0 29 -5 29 -15 0 -8 9 -15 20 -15 11 0 20 -4 20
-10 0 -5 14 -10 30 -10 17 0 30 -4 30 -10 0 -5 14 -10 30 -10 17 0 30 -4 30
-10 0 -13 -7 -13 -85 2 -40 8 -65 18 -65 25 0 8 -13 13 -32 14 -18 0 -27 3
-20 6 21 8 13 23 -13 23 -14 0 -25 5 -25 10 0 6 -13 10 -30 10 -16 0 -30 5
-30 11 0 14 73 4 78 -11z m672 10 c0 -12 -8 -12 -35 0 -18 8 -17 9 8 9 15 1
27 -3 27 -9z m-350 -15 c7 -8 23 -15 36 -15 13 0 24 -5 24 -10 0 -14 -82 0
-95 16 -5 7 -21 15 -35 17 -16 3 -10 5 16 6 26 0 46 -5 54 -14z m165 6 c10
-17 -12 -21 -25 -6 -10 12 -10 15 3 15 9 0 18 -4 22 -9z m70 -21 c-6 -10 -45
-1 -45 10 0 4 11 5 25 2 14 -2 23 -8 20 -12z m-665 0 c0 -5 14 -10 30 -10 17
0 30 -5 30 -12 0 -15 45 -38 71 -38 10 0 21 -4 24 -10 3 -5 17 -10 31 -10 15
0 24 -6 24 -16 0 -12 -6 -15 -22 -10 -13 3 -46 9 -75 12 -36 5 -50 10 -46 20
3 9 -7 14 -34 16 -37 4 -37 4 -13 15 24 11 24 12 -12 12 -24 1 -37 5 -35 13 1
7 -11 15 -28 19 -27 6 -26 7 13 8 23 0 42 -3 42 -9z m545 -20 c7 -12 -2 -12
-30 0 -19 8 -19 9 2 9 12 1 25 -3 28 -9z m-105 -26 c0 -11 -5 -14 -16 -10 -9
3 -20 6 -25 6 -5 0 -9 5 -9 10 0 6 11 10 25 10 16 0 25 -6 25 -16z m698 -52
c-14 -3 -15 -7 -6 -22 7 -11 9 -22 5 -26 -10 -11 -18 0 -23 34 -5 28 -3 30 18
24 18 -5 19 -7 6 -10z m-33 -42 c3 -6 -1 -7 -9 -4 -18 7 -21 14 -7 14 6 0 13
-4 16 -10z m52 -45 c0 -20 -4 -19 -17 5 -8 15 -8 18 3 14 8 -3 14 -11 14 -19z
m-24 -26 c3 -14 2 -31 -2 -37 -4 -7 -7 6 -8 29 -1 44 3 48 10 8z m61 15 c4 -9
4 -19 1 -22 -3 -3 -5 0 -5 7 0 7 -4 9 -10 6 -5 -3 -10 1 -10 9 0 21 16 20 24
0z m-977 -210 c-3 -3 -12 -4 -19 -1 -8 3 -5 6 6 6 11 1 17 -2 13 -5z m-9401
-48 c3 -9 7 -30 8 -48 1 -31 -1 -32 -42 -36 -41 -3 -111 13 -113 26 -7 39 -7
65 0 54 6 -10 10 -10 19 1 17 20 120 23 128 3z"/>
<path d="M301 11404 c0 -11 3 -14 6 -6 3 7 2 16 -1 19 -3 4 -6 -2 -5 -13z"/>
<path d="M310 11367 c-1 -56 83 -357 96 -344 3 2 0 17 -7 33 -6 16 -28 97 -50
179 -21 83 -38 142 -39 132z"/>
<path d="M4726 5875 c-5 -19 -3 -31 6 -36 16 -11 23 23 10 47 -8 14 -10 12
-16 -11z"/>
<path d="M4726 5755 c30 -24 49 -21 39 7 -4 9 -19 15 -37 16 l-32 1 30 -24z"/>
<path d="M3926 5361 c-9 -16 -12 -32 -7 -35 10 -6 37 52 28 60 -3 3 -13 -8
-21 -25z"/>
<path d="M4461 5304 c13 -16 29 -19 29 -5 0 5 -9 11 -21 14 -16 4 -18 3 -8 -9z"/>
<path d="M5890 5161 c5 -11 15 -23 21 -27 6 -3 3 5 -6 20 -20 30 -30 35 -15 7z"/>
<path d="M3811 5131 c-18 -11 57 -51 141 -75 32 -9 65 -19 75 -22 28 -9 -56
43 -112 70 -68 32 -88 37 -104 27z"/>
<path d="M4177 5134 c-4 -4 -7 -14 -7 -23 0 -11 3 -12 11 -4 6 6 10 16 7 23
-2 6 -7 8 -11 4z"/>
<path d="M5251 5001 c-20 -13 -9 -34 20 -37 23 -4 23 -3 5 10 -10 8 -15 19
-11 25 8 13 4 14 -14 2z"/>
<path d="M4096 4993 c-14 -14 -4 -31 22 -37 15 -4 36 -9 47 -12 17 -5 16 -2
-5 16 -35 29 -56 40 -64 33z"/>
<path d="M5537 4940 c3 -11 9 -17 15 -14 5 3 4 12 -3 20 -16 19 -18 18 -12 -6z"/>
<path d="M5710 4918 c0 -5 -4 -6 -10 -3 -14 9 -12 -11 3 -22 6 -6 19 -11 27
-11 45 -3 79 -11 98 -21 14 -8 22 -8 22 -1 0 5 5 10 11 10 5 0 7 -6 3 -12 -4
-7 1 -6 12 3 10 9 26 14 34 11 13 -5 13 -3 0 10 -17 16 -200 49 -200 36z"/>
<path d="M5873 4470 c-13 -5 -23 -11 -23 -12 0 -2 7 -21 15 -43 18 -51 19 -75
2 -75 -8 0 -22 -9 -32 -20 -10 -11 -24 -20 -31 -20 -24 0 -64 -23 -69 -40 -3
-10 -32 -48 -65 -85 -64 -73 -64 -73 -51 -94 14 -22 56 13 76 65 34 90 74 120
215 164 70 21 86 30 88 48 3 17 -2 22 -17 22 -15 0 -28 13 -44 47 -24 51 -31
56 -64 43z"/>
<path d="M5657 4433 c-12 -11 -8 -23 7 -23 8 0 18 4 21 10 4 6 -1 7 -11 3 -12
-4 -15 -3 -10 5 8 13 3 16 -7 5z"/>
<path d="M4780 4227 c-35 -18 -39 -47 -7 -47 14 0 27 -5 29 -12 7 -20 38 0 38
25 0 21 -16 47 -29 47 -4 0 -17 -6 -31 -13z"/>
<path d="M6020 4210 c-8 -5 -26 -10 -40 -10 -14 -1 -38 -7 -55 -14 l-30 -13
40 2 c45 2 95 14 110 25 6 4 19 10 30 13 14 3 11 5 -10 6 -16 0 -37 -4 -45 -9z"/>
<path d="M5812 4137 c-12 -7 -20 -16 -17 -19 4 -3 -5 -29 -19 -57 l-26 -51
-58 -1 -57 -2 45 -7 c25 -4 60 -15 78 -25 41 -21 48 -16 27 24 -14 28 -14 34
-1 60 9 16 27 43 42 60 27 33 23 38 -14 18z"/>
<path d="M3986 3811 c-16 -18 -16 -22 -2 -49 17 -34 46 -47 91 -43 40 4 42 7
14 31 -16 15 -20 23 -11 26 6 3 12 9 12 13 0 12 -50 32 -62 25 -7 -4 -8 -2 -4
4 12 20 -20 14 -38 -7z"/>
<path d="M6605 3710 c17 -17 39 -36 50 -42 14 -7 11 -1 -10 22 -16 17 -39 36
-50 42 -14 7 -11 1 10 -22z"/>
<path d="M4086 3700 c-15 -5 -16 -9 -7 -14 7 -5 18 -3 24 3 14 14 6 20 -17 11z"/>
<path d="M6750 3651 c-5 -11 -10 -27 -10 -36 0 -14 -4 -12 -19 6 l-20 24 -26
-26 c-26 -26 -27 -27 -10 -52 9 -15 25 -29 36 -32 28 -9 24 -48 -13 -124 -21
-43 -28 -66 -20 -69 7 -2 12 -9 12 -16 0 -22 44 -37 95 -34 l49 3 22 130 c28
164 28 165 4 165 -14 0 -20 7 -20 21 0 34 -19 59 -45 59 -14 0 -29 -8 -35 -19z"/>
<path d="M3834 3648 c-7 -12 -13 -8 75 -52 40 -20 83 -36 95 -34 15 2 -6 17
-71 50 -53 26 -96 42 -99 36z"/>
<path d="M9363 3643 c-7 -2 -13 -11 -13 -18 0 -17 31 -12 62 9 22 16 22 16 -7
15 -17 0 -36 -3 -42 -6z"/>
<path d="M4465 3601 c-6 -19 -9 -21 -17 -10 -8 11 -11 11 -15 1 -4 -10 -8 -9
-19 5 -13 17 -13 17 -14 -2 -1 -19 -1 -19 -14 -2 -13 17 -15 16 -21 -15 -6
-26 -9 -29 -14 -15 -4 10 -11 18 -15 17 -5 -1 -12 4 -17 11 -5 8 -10 -1 -14
-24 -4 -20 -11 -37 -16 -37 -5 0 -6 7 -3 15 4 8 1 15 -5 15 -6 0 -11 -12 -11
-26 0 -14 -4 -23 -10 -19 -6 3 -7 18 -4 33 4 21 3 24 -5 12 -6 -8 -11 -41 -9
-72 1 -32 -1 -60 -4 -64 -9 -9 25 -62 47 -73 38 -20 80 -34 90 -32 40 11 64
15 92 15 17 0 29 4 27 8 -3 4 2 8 10 8 9 0 16 5 16 10 0 6 7 10 15 10 8 0 15
4 15 8 0 4 16 15 35 24 19 8 32 11 29 7 -3 -5 -1 -9 4 -9 15 0 6 -94 -13 -131
-22 -43 -20 -41 -52 -46 -52 -7 -68 -10 -68 -13 0 -2 -34 -8 -62 -12 -7 -1
-13 -5 -13 -9 0 -7 -55 -32 -75 -34 -5 0 -16 -4 -22 -8 -7 -5 -17 -5 -23 -2
-5 3 -10 1 -10 -6 0 -7 -7 -4 -15 7 -14 18 -15 16 -13 -26 l3 -45 70 -24 c88
-29 221 -33 276 -8 20 9 38 14 41 12 2 -2 5 6 6 18 3 39 -18 65 -59 72 -22 4
-39 11 -39 16 0 6 13 24 30 42 34 36 68 100 74 139 3 15 7 32 11 38 3 5 1 10
-6 10 -9 0 -9 4 1 15 6 8 9 18 6 24 -3 5 -7 35 -9 66 -3 42 -9 62 -22 71 -15
12 -20 11 -31 -4 -12 -15 -13 -15 -14 8 -1 14 -4 19 -7 13 -2 -7 -9 -13 -14
-13 -6 0 -7 5 -3 12 5 8 2 9 -9 5 -12 -4 -17 -1 -17 11 -1 15 -2 15 -15 -2
-13 -17 -15 -18 -15 -3 0 19 -20 24 -21 5 0 -7 -4 -4 -8 7 -8 19 -8 19 -16 -4z
m-138 -63 c-3 -8 -6 -5 -6 6 -1 11 2 17 5 13 3 -3 4 -12 1 -19z"/>
<path d="M9075 3610 c-4 -6 8 -10 29 -10 19 0 38 5 41 10 4 6 -8 10 -29 10
-19 0 -38 -4 -41 -10z"/>
<path d="M9247 3613 c-14 -13 -6 -23 18 -23 14 0 25 4 25 9 0 5 8 12 18 14 9
3 1 5 -19 6 -20 0 -39 -2 -42 -6z"/>
<path d="M9403 3612 c-38 -6 -26 -22 17 -22 22 0 40 4 40 9 0 11 -28 18 -57
13z"/>
<path d="M8888 3603 c6 -2 18 -2 25 0 6 3 1 5 -13 5 -14 0 -19 -2 -12 -5z"/>
<path d="M8830 3590 c-12 -8 -11 -10 7 -10 12 0 25 5 28 10 8 13 -15 13 -35 0z"/>
<path d="M8983 3593 c-13 -2 -23 -9 -23 -15 0 -5 7 -7 16 -4 9 3 24 6 35 6 10
0 19 5 19 10 0 10 -8 11 -47 3z"/>
<path d="M9148 3593 c-10 -2 -18 -9 -18 -14 0 -15 40 -10 56 6 14 13 13 15 -3
14 -10 -1 -26 -3 -35 -6z"/>
<path d="M9288 3583 c-10 -2 -18 -9 -18 -15 0 -5 7 -7 16 -4 9 3 27 6 40 6 13
0 24 5 24 10 0 10 -30 12 -62 3z"/>
<path d="M8708 3563 c6 -2 18 -2 25 0 6 3 1 5 -13 5 -14 0 -19 -2 -12 -5z"/>
<path d="M8855 3560 l-20 -9 20 1 c11 0 31 4 45 8 l25 8 -25 0 c-14 0 -34 -3
-45 -8z"/>
<path d="M9026 3561 c-35 -14 -2 -19 34 -5 30 11 32 12 10 13 -14 0 -34 -4
-44 -8z"/>
<path d="M8560 3553 c-8 -2 -22 -7 -30 -9 -13 -5 -12 -7 2 -15 18 -10 98 -1
98 11 0 16 -39 24 -70 13z"/>
<path d="M9170 3550 c-11 -7 -6 -10 22 -10 20 0 40 5 43 10 8 13 -45 13 -65 0z"/>
<path d="M4203 3523 l-11 -28 -2 25 c-1 22 -2 23 -9 6 -9 -23 -2 -66 10 -66 5
0 9 8 9 17 0 15 2 14 15 -3 14 -18 15 -15 12 28 -2 55 -9 60 -24 21z"/>
<path d="M8770 3540 l-25 -8 28 -1 c15 -1 27 4 27 9 0 6 -1 10 -2 9 -2 -1 -14
-5 -28 -9z"/>
<path d="M8905 3530 c-3 -5 3 -10 14 -10 11 0 23 5 26 10 3 6 -3 10 -14 10
-11 0 -23 -4 -26 -10z"/>
<path d="M9059 3528 c-12 -5 -20 -10 -18 -12 8 -6 79 6 79 14 0 10 -30 9 -61
-2z"/>
<path d="M4126 3514 c-9 -22 -7 -54 2 -54 4 0 8 16 8 35 0 39 -1 42 -10 19z"/>
<path d="M4150 3497 c0 -20 4 -37 10 -37 5 0 7 14 3 33 -8 45 -13 47 -13 4z"/>
<path d="M8800 3510 l-25 -8 25 -1 c14 0 32 4 40 9 13 9 13 10 0 9 -8 -1 -26
-5 -40 -9z"/>
<path d="M8945 3500 c-16 -7 -13 -9 18 -9 20 -1 37 4 37 9 0 12 -27 12 -55 0z"/>
<path d="M8298 3489 c-31 -18 -20 -29 29 -29 25 0 43 3 40 7 -4 3 -2 12 4 20
9 10 5 13 -22 13 -19 0 -42 -5 -51 -11z"/>
<path d="M8205 3480 c-3 -5 3 -10 15 -10 12 0 18 5 15 10 -3 6 -10 10 -15 10
-5 0 -12 -4 -15 -10z"/>
<path d="M8695 3480 c3 -5 8 -10 11 -10 2 0 4 5 4 10 0 6 -5 10 -11 10 -5 0
-7 -4 -4 -10z"/>
<path d="M8853 3473 c9 -2 23 -2 30 0 6 3 -1 5 -18 5 -16 0 -22 -2 -12 -5z"/>
<path d="M8457 3464 c-8 -8 1 -24 14 -24 5 0 9 7 9 15 0 15 -12 20 -23 9z"/>
<path d="M8748 3453 c7 -3 16 -2 19 1 4 3 -2 6 -13 5 -11 0 -14 -3 -6 -6z"/>
<path d="M6335 3419 l-6 -28 -122 0 c-67 1 -138 -2 -157 -5 -19 -3 -219 -8
-445 -11 -376 -6 -460 -12 -411 -31 10 -4 163 -5 341 -2 178 3 328 2 334 -1 6
-4 -8 -23 -34 -44 -25 -21 -45 -44 -45 -51 0 -6 16 -27 35 -46 19 -19 35 -40
35 -47 0 -35 137 -57 360 -57 184 -1 298 14 327 42 14 14 14 17 -3 29 -9 7
-33 16 -51 19 -26 5 -33 10 -28 23 19 47 17 73 -5 104 l-23 31 20 13 c42 28
14 58 -79 82 -35 9 -37 8 -43 -20z m-387 -131 c-3 -7 -18 -14 -34 -16 -28 -2
-28 -2 -10 13 24 18 49 20 44 3z"/>
<path d="M8685 3440 c-7 -12 2 -30 16 -30 5 0 9 9 9 20 0 21 -15 27 -25 10z"/>
<path d="M8913 3443 c9 -2 23 -2 30 0 6 3 -1 5 -18 5 -16 0 -22 -2 -12 -5z"/>
<path d="M8265 3424 c6 -2 102 -24 215 -48 113 -25 239 -54 280 -64 142 -36
130 -36 130 -5 0 16 -4 34 -8 41 -6 8 -109 24 -296 47 -265 32 -347 40 -321
29z"/>
<path d="M8807 3423 c-12 -11 -8 -23 8 -23 8 0 15 7 15 15 0 16 -12 20 -23 8z"/>
<path d="M5050 3354 c0 -12 10 -14 52 -12 74 4 77 28 4 28 -44 0 -56 -3 -56
-16z"/>
<path d="M4680 3350 c0 -5 25 -10 55 -10 30 0 55 5 55 10 0 6 -25 10 -55 10
-30 0 -55 -4 -55 -10z"/>
<path d="M4810 3346 c0 -9 8 -12 26 -8 19 3 22 7 12 13 -20 13 -38 11 -38 -5z"/>
<path d="M4920 3350 c0 -5 7 -10 16 -10 8 0 12 5 9 10 -3 6 -10 10 -16 10 -5
0 -9 -4 -9 -10z"/>
<path d="M7080 3196 c22 -20 504 -177 564 -183 32 -3 90 3 156 17 164 34 194
56 117 90 -28 13 -47 28 -50 42 -6 22 -7 23 -22 3 -9 -11 -14 -14 -10 -7 10
20 -20 14 -51 -10 -15 -13 -24 -16 -19 -8 8 13 6 13 -8 1 -9 -7 -17 -20 -17
-27 0 -8 -5 -14 -11 -14 -5 0 -7 6 -3 13 5 8 3 8 -9 -2 -9 -7 -15 -17 -12 -21
9 -14 -48 -21 -135 -16 -70 4 -119 16 -280 71 -203 68 -236 76 -210 51z"/>
<path d="M4220 3146 c0 -9 5 -16 10 -16 6 0 10 4 10 9 0 6 -4 13 -10 16 -5 3
-10 -1 -10 -9z"/>
<path d="M10605 3800 c-3 -5 -1 -10 4 -10 6 0 11 5 11 10 0 6 -2 10 -4 10 -3
0 -8 -4 -11 -10z"/>
<path d="M10630 3775 c-11 -13 -11 -18 0 -28 10 -9 11 -9 6 1 -4 7 -2 19 4 27
7 8 10 15 7 15 -2 0 -10 -7 -17 -15z"/>
<path d="M10630 3708 c0 -12 3 -17 8 -12 4 5 11 12 15 15 5 3 2 9 -7 12 -12 5
-16 0 -16 -15z"/>
</g>
</svg>
